name Walk4.mot
datacolumns 19
datarows 30
range 2.05500000 2.08400000
endheader

                time	   L_ground_force_vx	   L_ground_force_vy	   L_ground_force_vz	   L_ground_force_px	   L_ground_force_py	   L_ground_force_pz	   R_ground_force_vx	   R_ground_force_vy	   R_ground_force_vz	   R_ground_force_px	   R_ground_force_py	   R_ground_force_pz	   L_ground_torque_x	   L_ground_torque_y	   L_ground_torque_z	   R_ground_torque_x	   R_ground_torque_y	   R_ground_torque_z	
          2.05500000	          0.00000000	          0.00000000	          0.00000000	          0.00000000	          0.00000000	          0.00000000	        -24.49500964	        861.93312693	        -43.68041063	          0.42528005	          0.00000000	          0.10030433	          0.00000000	          0.00000000	          0.00000000	          0.00000000	          2.39155195	          0.00000000	
          2.05600000	          0.00000000	          0.00000000	          0.00000000	          0.00000000	          0.00000000	          0.00000000	        -24.01173793	        859.43162990	        -43.43605848	          0.42540157	          0.00000000	          0.10037202	          0.00000000	          0.00000000	          0.00000000	          0.00000000	          2.31953794	          0.00000000	
          2.05700000	          0.00000000	          0.00000000	          0.00000000	          0.00000000	          0.00000000	          0.00000000	        -23.52226441	        856.91007826	        -43.18763100	          0.42548824	          0.00000000	          0.10041419	          0.00000000	          0.00000000	          0.00000000	          0.00000000	          2.24701487	          0.00000000	
          2.05800000	          0.00000000	          0.00000000	          0.00000000	          0.00000000	          0.00000000	          0.00000000	        -23.02821705	        854.37215346	        -42.93005918	          0.42555217	          0.00000000	          0.10045588	          0.00000000	          0.00000000	          0.00000000	          0.00000000	          2.17237030	          0.00000000	
          2.05900000	          0.00000000	          0.00000000	          0.00000000	          0.00000000	          0.00000000	          0.00000000	        -22.53616275	        851.83612037	        -42.66599516	          0.42563585	          0.00000000	          0.10052104	          0.00000000	          0.00000000	          0.00000000	          0.00000000	          2.09600154	          0.00000000	
          2.06000000	          0.00000000	          0.00000000	          0.00000000	          0.00000000	          0.00000000	          0.00000000	        -22.05275073	        849.33636442	        -42.40529992	          0.42577072	          0.00000000	          0.10061753	          0.00000000	          0.00000000	          0.00000000	          0.00000000	          2.01705066	          0.00000000	
          2.06100000	          0.00000000	          0.00000000	          0.00000000	          0.00000000	          0.00000000	          0.00000000	        -21.58041115	        846.90487539	        -42.15178583	          0.42594912	          0.00000000	          0.10073609	          0.00000000	          0.00000000	          0.00000000	          0.00000000	          1.93423734	          0.00000000	
          2.06200000	          0.00000000	          0.00000000	          0.00000000	          0.00000000	          0.00000000	          0.00000000	        -21.11830045	        844.56048840	        -41.89903943	          0.42612772	          0.00000000	          0.10086629	          0.00000000	          0.00000000	          0.00000000	          0.00000000	          1.84830477	          0.00000000	
          2.06300000	          0.00000000	          0.00000000	          0.00000000	          0.00000000	          0.00000000	          0.00000000	        -20.66478187	        842.31077341	        -41.64141900	          0.42626963	          0.00000000	          0.10100889	          0.00000000	          0.00000000	          0.00000000	          0.00000000	          1.76098437	          0.00000000	
          2.06400000	          0.00000000	          0.00000000	          0.00000000	          0.00000000	          0.00000000	          0.00000000	        -20.21588672	        840.13955575	        -41.37799302	          0.42637663	          0.00000000	          0.10115829	          0.00000000	          0.00000000	          0.00000000	          0.00000000	          1.67284349	          0.00000000	
          2.06500000	          0.00000000	          0.00000000	          0.00000000	          0.00000000	          0.00000000	          0.00000000	        -19.76612231	        838.01033540	        -41.10732478	          0.42646945	          0.00000000	          0.10128817	          0.00000000	          0.00000000	          0.00000000	          0.00000000	          1.58403395	          0.00000000	
          2.06600000	          0.00000000	          0.00000000	          0.00000000	          0.00000000	          0.00000000	          0.00000000	        -19.31316934	        835.89861438	        -40.83018133	          0.42656113	          0.00000000	          0.10137394	          0.00000000	          0.00000000	          0.00000000	          0.00000000	          1.49510116	          0.00000000	
          2.06700000	          0.00000000	          0.00000000	          0.00000000	          0.00000000	          0.00000000	          0.00000000	        -18.85879638	        833.81401658	        -40.55286835	          0.42666125	          0.00000000	          0.10142032	          0.00000000	          0.00000000	          0.00000000	          0.00000000	          1.40563362	          0.00000000	
          2.06800000	          0.00000000	          0.00000000	          0.00000000	          0.00000000	          0.00000000	          0.00000000	        -18.40540567	        831.78929559	        -40.28070654	          0.42678362	          0.00000000	          0.10145288	          0.00000000	          0.00000000	          0.00000000	          0.00000000	          1.31614292	          0.00000000	
          2.06900000	          0.00000000	          0.00000000	          0.00000000	          0.00000000	          0.00000000	          0.00000000	        -17.95505876	        829.85293307	        -40.01573814	          0.42693464	          0.00000000	          0.10148766	          0.00000000	          0.00000000	          0.00000000	          0.00000000	          1.23111749	          0.00000000	
          2.07000000	          0.00000000	          0.00000000	          0.00000000	          0.00000000	          0.00000000	          0.00000000	        -17.51018719	        828.01769904	        -39.76204101	          0.42710337	          0.00000000	          0.10152462	          0.00000000	          0.00000000	          0.00000000	          0.00000000	          1.15544223	          0.00000000	
          2.07100000	          0.00000000	          0.00000000	          0.00000000	          0.00000000	          0.00000000	          0.00000000	        -17.07053432	        826.28377225	        -39.52502399	          0.42727230	          0.00000000	          0.10156443	          0.00000000	          0.00000000	          0.00000000	          0.00000000	          1.08940968	          0.00000000	
          2.07200000	          0.00000000	          0.00000000	          0.00000000	          0.00000000	          0.00000000	          0.00000000	        -16.63439610	        824.64169109	        -39.30450330	          0.42742861	          0.00000000	          0.10161231	          0.00000000	          0.00000000	          0.00000000	          0.00000000	          1.02898209	          0.00000000	
          2.07300000	          0.00000000	          0.00000000	          0.00000000	          0.00000000	          0.00000000	          0.00000000	        -16.20409654	        823.07833163	        -39.09035805	          0.42756401	          0.00000000	          0.10167055	          0.00000000	          0.00000000	          0.00000000	          0.00000000	          0.96912511	          0.00000000	
          2.07400000	          0.00000000	          0.00000000	          0.00000000	          0.00000000	          0.00000000	          0.00000000	        -15.77951904	        821.57746866	        -38.86757896	          0.42767890	          0.00000000	          0.10174168	          0.00000000	          0.00000000	          0.00000000	          0.00000000	          0.90779630	          0.00000000	
          2.07500000	          0.00000000	          0.00000000	          0.00000000	          0.00000000	          0.00000000	          0.00000000	        -15.35082320	        820.11718212	        -38.63159295	          0.42778621	          0.00000000	          0.10183248	          0.00000000	          0.00000000	          0.00000000	          0.00000000	          0.84633260	          0.00000000	
          2.07600000	          0.00000000	          0.00000000	          0.00000000	          0.00000000	          0.00000000	          0.00000000	        -14.91020592	        818.68027390	        -38.39367796	          0.42789765	          0.00000000	          0.10194514	          0.00000000	          0.00000000	          0.00000000	          0.00000000	          0.78396505	          0.00000000	
          2.07700000	          0.00000000	          0.00000000	          0.00000000	          0.00000000	          0.00000000	          0.00000000	        -14.46329515	        817.26757372	        -38.16491392	          0.42801321	          0.00000000	          0.10206662	          0.00000000	          0.00000000	          0.00000000	          0.00000000	          0.71491442	          0.00000000	
          2.07800000	          0.00000000	          0.00000000	          0.00000000	          0.00000000	          0.00000000	          0.00000000	        -14.02043750	        815.90727531	        -37.94506185	          0.42813083	          0.00000000	          0.10217505	          0.00000000	          0.00000000	          0.00000000	          0.00000000	          0.63431218	          0.00000000	
          2.07900000	          0.00000000	          0.00000000	          0.00000000	          0.00000000	          0.00000000	          0.00000000	        -13.58319518	        814.65410248	        -37.73093729	          0.42824841	          0.00000000	          0.10225689	          0.00000000	          0.00000000	          0.00000000	          0.00000000	          0.54466585	          0.00000000	
          2.08000000	          0.00000000	          0.00000000	          0.00000000	          0.00000000	          0.00000000	          0.00000000	        -13.14369996	        813.55336425	        -37.52575711	          0.42835778	          0.00000000	          0.10231270	          0.00000000	          0.00000000	          0.00000000	          0.00000000	          0.45357065	          0.00000000	
          2.08100000	          0.00000000	          0.00000000	          0.00000000	          0.00000000	          0.00000000	          0.00000000	        -12.69344658	        812.58520392	        -37.33594246	          0.42845234	          0.00000000	          0.10235000	          0.00000000	          0.00000000	          0.00000000	          0.00000000	          0.36564370	          0.00000000	
          2.08200000	          0.00000000	          0.00000000	          0.00000000	          0.00000000	          0.00000000	          0.00000000	        -12.23025439	        811.66352839	        -37.16240540	          0.42853025	          0.00000000	          0.10237773	          0.00000000	          0.00000000	          0.00000000	          0.00000000	          0.27801918	          0.00000000	
          2.08300000	          0.00000000	          0.00000000	          0.00000000	          0.00000000	          0.00000000	          0.00000000	        -11.75788463	        810.71151638	        -37.00058042	          0.42859170	          0.00000000	          0.10240364	          0.00000000	          0.00000000	          0.00000000	          0.00000000	          0.18413425	          0.00000000	
          2.08400000	          0.00000000	          0.00000000	          0.00000000	          0.00000000	          0.00000000	          0.00000000	        -11.28101700	        809.72462516	        -36.84858036	          0.42864588	          0.00000000	          0.10242749	          0.00000000	          0.00000000	          0.00000000	          0.00000000	          0.08128609	          0.00000000	
